<svg width="5" height="4" viewBox="0 0 5 4" fill="none" xmlns="http://www.w3.org/2000/svg">
<path d="M4.34783 1.8431C4.34783 2.85917 3.52552 3.6862 2.51418 3.6862C2.14083 3.6862 1.78166 3.57278 1.47448 3.36484C1.38941 3.3034 1.36578 3.18998 1.42722 3.10019C1.48866 3.01512 1.60208 2.99149 1.69187 3.05293C1.93289 3.21834 2.22117 3.30813 2.51418 3.30813C3.31758 3.30813 3.96975 2.65123 3.96975 1.8431C3.96975 1.03497 3.31758 0.378072 2.51418 0.378072C1.72968 0.378072 1.08696 1.00662 1.0586 1.79112L1.49811 1.34688C1.57372 1.27127 1.69187 1.27127 1.76749 1.34688C1.8431 1.4225 1.8431 1.54064 1.76749 1.61626L1.04442 2.33932C1.00662 2.37713 0.959357 2.39603 0.912098 2.39603C0.860113 2.39603 0.812854 2.37713 0.779773 2.33932L0.0567108 1.61153C-0.0189036 1.53592 -0.0189036 1.41777 0.0567108 1.34216C0.132325 1.26654 0.250473 1.26654 0.326087 1.34216L0.685255 1.70605C0.751418 0.756144 1.54537 0 2.51418 0C3.52552 0 4.34783 0.827032 4.34783 1.8431ZM2.50473 0.770321C2.40076 0.770321 2.31569 0.855388 2.31569 0.959357V1.8431C2.31569 1.89509 2.33932 1.94234 2.37713 1.97543L2.78355 2.38185C2.82136 2.41966 2.86862 2.43856 2.9206 2.43856C2.96786 2.43856 3.01985 2.41966 3.05293 2.38185C3.12854 2.30624 3.12382 2.18809 3.0482 2.11248L2.69376 1.76276V0.959357C2.69376 0.855388 2.6087 0.770321 2.50473 0.770321Z" fill="#6E6E6E"/>
</svg>
