<svg width="20" height="17" viewBox="0 0 20 17" fill="none" xmlns="http://www.w3.org/2000/svg">
<path d="M20 8.5C20 13.1859 16.2174 17 11.5652 17C9.84783 17 8.19565 16.4769 6.78261 15.5179C6.3913 15.2346 6.28261 14.7115 6.56522 14.2974C6.84783 13.9051 7.36956 13.7962 7.78261 14.0795C8.8913 14.8423 10.2174 15.2564 11.5652 15.2564C15.2609 15.2564 18.2609 12.2269 18.2609 8.5C18.2609 4.77308 15.2609 1.74359 11.5652 1.74359C7.95652 1.74359 5 4.64231 4.86956 8.26026L6.8913 6.21154C7.23913 5.86282 7.78261 5.86282 8.13043 6.21154C8.47826 6.56026 8.47826 7.10513 8.13043 7.45385L4.80435 10.7885C4.63043 10.9628 4.41304 11.05 4.19565 11.05C3.95652 11.05 3.73913 10.9628 3.58696 10.7885L0.26087 7.43205C-0.0869565 7.08333 -0.0869565 6.53846 0.26087 6.18974C0.608696 5.84103 1.15217 5.84103 1.5 6.18974L3.15217 7.86795C3.45652 3.48718 7.1087 0 11.5652 0C16.2174 0 20 3.8141 20 8.5ZM11.5217 3.55256C11.0435 3.55256 10.6522 3.94487 10.6522 4.42436V8.5C10.6522 8.73974 10.7609 8.95769 10.9348 9.11026L12.8043 10.9846C12.9783 11.159 13.1957 11.2462 13.4348 11.2462C13.6522 11.2462 13.8913 11.159 14.0435 10.9846C14.3913 10.6359 14.3696 10.091 14.0217 9.74231L12.3913 8.12949V4.42436C12.3913 3.94487 12 3.55256 11.5217 3.55256Z" fill="white"/>
</svg>
