<svg width="14" height="14" viewBox="0 0 14 14" fill="none" xmlns="http://www.w3.org/2000/svg">
<path d="M11.6328 1.09073C11.4938 1.01201 11.3366 0.973022 11.1644 0.973022C10.1634 0.973022 8.64974 2.41839 7.48394 4.48888C6.85022 5.61222 6.40823 6.76022 6.23947 7.71982C6.05233 8.78174 6.24118 9.32873 6.50126 9.61348L5.25168 11.8297C5.1736 11.9675 5.22241 12.1426 5.36074 12.22C5.40496 12.2458 5.45313 12.2567 5.50141 12.2567C5.60127 12.2567 5.6989 12.204 5.75166 12.1109L7.00297 9.89247C7.06492 9.9039 7.12815 9.9149 7.19523 9.9149C8.19691 9.9149 9.71052 8.46953 10.8757 6.39904C11.0807 6.0346 11.2677 5.66491 11.4319 5.29695C11.4703 5.21086 11.4646 5.11099 11.4152 5.03003C11.3698 4.95483 11.2929 4.90548 11.2075 4.89459L11.6287 4.6501C11.6879 4.61507 11.732 4.56283 11.755 4.49853C12.3795 2.75974 12.3342 1.48662 11.6328 1.09068L11.6328 1.09073ZM6.82219 9.04393C6.72179 8.77818 6.71143 8.34762 6.80435 7.81956C6.96222 6.92181 7.38125 5.83864 7.98399 4.76991C9.05392 2.87059 10.3253 1.70468 11.032 1.57398L6.82219 9.04393ZM11.2489 4.20628L10.0911 4.88016C9.98155 4.94393 9.92643 5.07189 9.95623 5.19524C9.98603 5.3186 10.0928 5.40823 10.2197 5.41506L10.73 5.44315C10.6197 5.66874 10.5015 5.89487 10.3758 6.11822C9.30703 8.01754 8.01665 9.19876 7.32149 9.3281L11.5368 1.84712C11.689 2.25419 11.6414 3.07609 11.2487 4.20637L11.2489 4.20628Z" fill="black"/>
<path d="M10.754 12.4529H2.0934C1.93499 12.4529 1.8064 12.5808 1.8064 12.7399C1.8064 12.8977 1.935 13.0269 2.0934 13.0269H10.754C10.9124 13.0269 11.041 12.8977 11.041 12.7399C11.041 12.5809 10.9125 12.4529 10.754 12.4529Z" fill="black"/>
</svg>
