<svg width="76" height="77" viewBox="0 0 76 77" fill="none" xmlns="http://www.w3.org/2000/svg">
<path d="M59.6312 41.1518L48.8154 51.9655L37.9996 62.7834L16.3682 41.1518C14.9438 39.7338 13.8135 38.0483 13.0422 36.1922C12.271 34.3362 11.874 32.3461 11.874 30.3362C11.874 28.3263 12.271 26.3362 13.0422 24.4802C13.8135 22.6241 14.9438 20.9386 16.3682 19.5206C17.7861 18.0959 19.4714 16.9652 21.3275 16.1938C23.1836 15.4223 25.1739 15.0254 27.184 15.0254C29.194 15.0254 31.1842 15.4223 33.0403 16.1938C34.8964 16.9652 36.5817 18.0959 37.9996 19.5206C39.4175 18.0959 41.103 16.9652 42.9591 16.1938C44.8152 15.4223 46.8054 15.0254 48.8154 15.0254C50.8254 15.0254 52.8156 15.4223 54.6717 16.1938C56.5278 16.9652 58.2133 18.0959 59.6312 19.5206C61.0556 20.9386 62.1859 22.6241 62.9571 24.4802C63.7283 26.3362 64.1253 28.3263 64.1253 30.3362C64.1253 32.3461 63.7283 34.3362 62.9571 36.1922C62.1859 38.0483 61.0556 39.7338 59.6312 41.1518L37.9996 62.7834L27.184 51.9655L16.3682 41.1518" fill="#F7921C"/>
<path fill-rule="evenodd" clip-rule="evenodd" d="M25.7231 59.9578C25.6119 59.849 25.4803 59.763 25.3358 59.7053C25.1913 59.6475 25.0367 59.619 24.8811 59.6212C24.7254 59.6234 24.5718 59.6565 24.4289 59.7183C24.2861 59.7802 24.157 59.8696 24.0489 59.9816L21.5147 62.5155L20.6787 65.0308L23.1962 64.1947L25.7279 61.6605C25.8416 61.5497 25.9319 61.4172 25.9935 61.2708C26.0551 61.1245 26.0868 60.9675 26.0865 60.8087C26.0863 60.65 26.0542 60.4927 25.9922 60.3466C25.9302 60.2004 25.8396 60.0683 25.7256 59.9578H25.7231Z" fill="#2B4255"/>
<path d="M62.584 18.0863L66.8566 13.8135L71.8916 18.8534L67.6641 23.0807M52.1458 38.5991L29.9158 60.829L24.8809 55.7917L47.1085 33.5618" fill="#34485C"/>
<path d="M25.7129 56.6348L29.0716 59.9935L25.7129 63.3523L22.3541 59.9935L25.7129 56.6348Z" fill="#34485C"/>
<path d="M62.6592 16.3291L69.3767 23.0466L52.5829 39.8404L45.8654 33.1229L62.6592 16.3291Z" fill="#8B8B8B"/>
<path opacity="0.15" d="M60.3605 18.6299L67.077 25.3464L64.3409 28.0847L57.6221 21.3681L60.3605 18.6299Z" fill="black"/>
<path fill-rule="evenodd" clip-rule="evenodd" d="M58.4586 15.4921C58.2359 15.2695 57.9339 15.1445 57.619 15.1445C57.3041 15.1445 57.0022 15.2695 56.7795 15.4921L48.2912 23.9803L47.4529 24.8211L43.3584 28.9133C43.248 29.0235 43.1603 29.1545 43.1005 29.2986C43.0407 29.4427 43.0099 29.5971 43.0098 29.7532C43.0097 29.9092 43.0403 30.0638 43.0999 30.208C43.1595 30.3522 43.2468 30.4832 43.3571 30.5936C43.4673 30.704 43.5983 30.7916 43.7424 30.8514C43.8865 30.9112 44.0411 30.942 44.1971 30.9421C44.3532 30.9422 44.5077 30.9116 44.6519 30.8519C44.7961 30.7923 44.927 30.705 45.0374 30.5948L49.1319 26.5003L49.9704 25.6595L57.6178 18.0121L58.5916 18.9833L61.1352 21.5271L65.1774 25.5694L66.0158 26.4075L67.6949 24.7286L66.8566 23.8902L62.8737 19.9073L60.2707 17.3018L58.4586 15.4921Z" fill="#34485C"/>
<path opacity="0.15" d="M25.7129 56.6348L29.0716 59.9935L27.3923 61.6729L24.0335 58.3141L25.7129 56.6348Z" fill="black"/>
<path d="M4.75 63.8438H9.5M11.875 63.8438H19" stroke="#34485C"/>
</svg>
